<svg xmlns="http://www.w3.org/2000/svg" width="53.03" height="46.401" viewBox="0 0 53.03 46.401">
  <path id="Icon_awesome-headphones-alt" data-name="Icon awesome-headphones-alt" d="M16.572,28.765H14.915a6.634,6.634,0,0,0-6.629,6.641v6.6a6.635,6.635,0,0,0,6.629,6.641h1.657a3.318,3.318,0,0,0,3.314-3.321V32.086A3.317,3.317,0,0,0,16.572,28.765Zm21.543,0H36.458a3.317,3.317,0,0,0-3.314,3.321V45.331a3.318,3.318,0,0,0,3.314,3.321h1.657a6.635,6.635,0,0,0,6.629-6.641v-6.6a6.635,6.635,0,0,0-6.629-6.641ZM26.515,2.25C11.695,2.25.473,14.589,0,28.765v11.6a1.657,1.657,0,0,0,1.657,1.657H3.314a1.657,1.657,0,0,0,1.657-1.657v-11.6a21.543,21.543,0,0,1,43.087,0v11.6a1.657,1.657,0,0,0,1.657,1.657h1.657a1.657,1.657,0,0,0,1.657-1.657v-11.6C52.557,14.589,41.335,2.25,26.515,2.25Z" transform="translate(0 -2.25)"/>
</svg>
